<svg xmlns="http://www.w3.org/2000/svg" version="1.1" viewBox="0 0 41 51.25" x="0px" y="0px"><title>left-arrow</title><path d="M20.5 2.293c-10.045 0-18.207 8.163-18.207 18.207 0 10.044 8.163 18.207 18.207 18.207 10.044 0 18.207-8.163 18.207-18.207s-8.163-18.207-18.207-18.207zM20.5 2.999c9.645 0 17.501 7.856 17.501 17.501s-7.856 17.501-17.501 17.501c-9.645 0-17.501-7.856-17.501-17.501s7.856-17.501 17.501-17.501zM17.622 14.862c-0.088 0-0.176 0.032-0.249 0.105l-5.281 5.281c-0.147 0.147-0.147 0.35 0 0.496l5.274 5.287c0.076 0.076 0.155 0.105 0.252 0.105s0.18-0.031 0.254-0.105c0.147-0.147 0.147-0.35 0-0.496l-4.679-4.679h15.471c0.206 0 0.357-0.151 0.357-0.357s-0.151-0.357-0.357-0.357h-15.471l4.679-4.679c0.147-0.147 0.147-0.35 0-0.496-0.073-0.073-0.161-0.105-0.249-0.105z"/><text x="0" y="56" fill="#000000" font-size="5px" font-weight="bold" font-family="'Helvetica Neue', Helvetica, Arial-Unicode, Arial, Sans-serif">Created by vectlab</text><text x="0" y="61" fill="#000000" font-size="5px" font-weight="bold" font-family="'Helvetica Neue', Helvetica, Arial-Unicode, Arial, Sans-serif">from the Noun Project</text></svg>