<?xml version="1.0" encoding="utf-8"?>
<!-- Generator: Adobe Illustrator 26.0.3, SVG Export Plug-In . SVG Version: 6.00 Build 0)  -->
<svg version="1.0" id="katman_1" xmlns="http://www.w3.org/2000/svg" xmlns:xlink="http://www.w3.org/1999/xlink" x="0px" y="0px"
	 viewBox="0 0 600 450" style="enable-background:new 0 0 600 450;" xml:space="preserve">
<style type="text/css">
	.st0{fill:#01221B;}
</style>
<path class="st0" d="M452.8,66.9H147.5c-12,0.1-23.6,5-32.1,13.8c-8.5,8.8-13.3,20.6-13.4,33v223.5c0,12.4,4.9,24.3,13.4,33
	c8.5,8.8,20.1,13.7,32.1,13.8h305.3c12-0.1,23.6-5,32.1-13.8c8.5-8.8,13.3-20.6,13.4-33V113.6c0-12.4-4.9-24.3-13.4-33
	C476.4,71.9,464.8,66.9,452.8,66.9z M142.1,250.7c-10,0-20.8-6.2-21.4-17.6c0-0.1,0-0.1,0-0.2c0-0.1,0.1-0.1,0.1-0.2
	c0.1-0.1,0.1-0.1,0.2-0.1c0.1,0,0.1,0,0.2,0h12.2c0.1,0,0.3,0,0.4,0.1c0.1,0.1,0.2,0.2,0.2,0.4c0.3,3.6,4.1,5.7,9.4,5.7
	c3.7,0,7.4-1.8,7.4-4.5c0-2.3-1.8-3.7-5.1-4.7c-2.8-0.8-6-1.7-8.3-2.4c-13.4-4.1-15.1-10-15.1-16.1c0-8.5,8.3-16.2,19.6-16.2
	c9.6,0,19.9,4.4,20.7,16.5c0,0.1,0,0.1,0,0.2c0,0.1-0.1,0.1-0.1,0.2c-0.1,0.1-0.1,0.1-0.2,0.1c-0.1,0-0.1,0-0.2,0h-12.2
	c-0.1,0-0.3-0.1-0.4-0.1c-0.1-0.1-0.2-0.2-0.2-0.4c-0.3-3.8-4-4.6-7.3-4.6c-3.3,0-6.6,1-6.6,4.2c0,3.2,4.1,4.5,6.4,5.1
	c2.3,0.6,8.6,2.1,8.6,2.1c12.6,3.3,13.4,12,13.4,15.8C163.7,242.1,157,250.7,142.1,250.7L142.1,250.7z M214.8,250.2
	c0,0.1-0.1,0.3-0.2,0.4c-0.1,0.1-0.2,0.2-0.4,0.2h-12.5c-0.1,0-0.3-0.1-0.4-0.2c-0.1-0.1-0.1-0.2-0.2-0.4v-28.3
	c0-5.6-1.7-11.2-8.2-11.2c-6,0-9.7,4.1-9.7,9.8v29.7c0,0.1-0.1,0.3-0.2,0.4c-0.1,0.1-0.2,0.2-0.4,0.2h-12.4c-0.1,0-0.1,0-0.2,0
	c-0.1,0-0.1-0.1-0.2-0.1c0,0-0.1-0.1-0.1-0.2c0-0.1,0-0.1,0-0.2v-69.6c0-0.1,0-0.3,0.1-0.4c0.1-0.1,0.2-0.2,0.4-0.2h11.6
	c0.1,0,0.1,0,0.2,0c0.1,0,0.1,0.1,0.2,0.1c0.1,0.1,0.1,0.2,0.2,0.4v24.3l0.3-0.3c1.5-2.1,3.4-3.8,5.7-5c2.2-1.2,4.7-1.8,7.2-1.9
	c8.2,0,13.6,4,16.5,10.2c1.3,2.9,2.1,6.1,2.3,9.3c0.1,1,0.1,2,0.1,3L214.8,250.2z M246.7,254.5h-1.6c-13.2-0.4-23.4-10-23.8-22.6
	c-0.3-9.9,5.4-15.1,10-17.9c0.1-0.1,0.3-0.1,0.5-0.2c0.2,0,0.3,0,0.5,0c0.2,0,0.3,0.1,0.4,0.2c0.1,0.1,0.2,0.2,0.3,0.4l4.1,8
	c0.1,0.3,0.2,0.5,0.1,0.8c-0.1,0.3-0.2,0.5-0.5,0.7c-2.9,2.2-4.4,4.5-4.4,7.9c0,6.5,5.5,10.8,13.6,10.9c9.9-0.1,16-6.9,16-17.6
	c0-2.7-0.4-5.4-1.4-8c-1-2.5-2.5-4.8-4.4-6.8c-1.7-1.6-3.8-2.8-6-3.5s-4.6-0.9-6.9-0.6c-9.2,0.8-13.1,3.5-15.5,5.6l-0.4,0.3
	c-0.1,0.1-0.3,0.2-0.4,0.2c-0.2,0-0.3,0-0.5,0c-0.2,0-0.3-0.1-0.5-0.2c-0.1-0.1-0.3-0.2-0.3-0.4l-4.6-8.1c-0.1-0.3-0.2-0.6-0.1-0.8
	c0.1-0.3,0.2-0.5,0.5-0.7l0.1-0.1c4.6-3.2,10.4-7.3,22-7.3c19.6,0,30.2,16,30.2,31C273.8,241.9,262.4,254,246.7,254.5L246.7,254.5z
	 M308.4,250.8c-7,0-12.4-3.7-14.4-6.8h-0.2v22.4c0,0.1,0,0.1,0,0.2c0,0.1-0.1,0.1-0.1,0.2c0,0-0.1,0.1-0.2,0.1c-0.1,0-0.1,0-0.2,0
	h-12.4c-0.1,0-0.1,0-0.2,0c-0.1,0-0.1-0.1-0.2-0.1c-0.1-0.1-0.2-0.2-0.2-0.4v-68.2c0-0.1,0.1-0.3,0.2-0.4c0,0,0.1-0.1,0.2-0.1
	c0.1,0,0.1,0,0.2,0h11.6c0.1,0,0.1,0,0.2,0s0.1,0.1,0.2,0.1c0,0,0.1,0.1,0.1,0.2s0,0.1,0,0.2v7.3c1.7-2.3,4-4.3,6.5-5.6
	c2.6-1.3,5.4-2.1,8.2-2.2c13.9,0,24.9,11.9,24.9,26.5C332.6,239.5,321.6,250.8,308.4,250.8L308.4,250.8z M477.5,253.6
	c0,1.8-0.3,3.5-1,5.2c-0.7,1.7-1.6,3.2-2.9,4.4c-1.2,1.3-2.7,2.3-4.3,2.9c-1.6,0.7-3.3,1-5.1,1H358.2c-3.5,0-6.9-1.4-9.4-4
	c-2.5-2.6-3.9-6-3.9-9.6v-59.6c0-3.6,1.4-7.1,3.9-9.6c2.5-2.6,5.8-4,9.4-4h106c2.6,0,5.2,0.8,7.4,2.3c2.2,1.5,3.9,3.6,4.9,6.1
	c0.7,1.6,1,3.4,1,5.2L477.5,253.6z"/>
<path class="st0" d="M413.5,210.1c-8.6,0-12.6,3.8-13.4,8.8c0,0.1,0,0.2,0,0.3c0,0.1,0.1,0.2,0.1,0.3c0.1,0.1,0.1,0.1,0.2,0.2
	c0.1,0,0.2,0,0.3,0h5.5c0.1,0,0.3,0,0.4-0.1c0.1-0.1,0.2-0.2,0.3-0.4c0.5-2.1,2.8-3.4,6.3-3.4c3.6,0,5.7,1.4,5.7,4.8v1.7l-5.6,0.2
	c-5.2,0.2-8.8,1.1-11.1,2.9c-1.1,0.8-2,1.9-2.6,3.2c-0.6,1.3-0.9,2.7-0.8,4.1c0,5.8,4.2,9.2,10.5,9.2c4.3,0,7-1.3,8.6-3.2
	c0.1-0.1,0.2-0.2,0.3-0.2c0.1,0,0.2,0,0.3,0c0.1,0.1,0.2,0.1,0.3,0.2c0.1,0.1,0.1,0.2,0.1,0.3v1.3c0,0.1,0,0.2,0,0.3
	c0,0.1,0.1,0.2,0.2,0.2c0.1,0.1,0.1,0.1,0.2,0.2c0.1,0,0.2,0,0.3,0h5.5c0.1,0,0.2,0,0.3,0c0.1,0,0.2-0.1,0.2-0.2
	c0.1-0.1,0.1-0.2,0.2-0.2c0-0.1,0-0.2,0-0.3v-17.7C425.8,214.5,422.6,210.1,413.5,210.1z M419,228.9c0,4.7-2.8,7.4-7.6,7.4
	c-3.5,0-5.6-1.4-5.6-3.9c0-2.7,2.2-4.4,6-4.5l7.2-0.4V228.9z"/>
<path class="st0" d="M381.9,195.7h-15.6c-0.1,0-0.2,0-0.3,0.1c-0.1,0-0.2,0.1-0.2,0.2c-0.1,0.1-0.1,0.1-0.1,0.2c0,0.1-0.1,0.2,0,0.3
	v44c0,0.2,0.1,0.4,0.2,0.5c0.1,0.1,0.3,0.2,0.5,0.2h5.9c0.2,0,0.4-0.1,0.5-0.2c0.1-0.1,0.2-0.3,0.2-0.5v-12.2c0-0.2,0.1-0.4,0.2-0.5
	c0.1-0.1,0.3-0.2,0.5-0.2h8.4c8.8,0,15.2-6.6,15.2-15.9C397.2,202.3,390.8,195.7,381.9,195.7z M381.5,220.8h-7.9
	c-0.1,0-0.2,0-0.3-0.1c-0.1,0-0.2-0.1-0.2-0.2c-0.1-0.1-0.1-0.1-0.2-0.2c0-0.1-0.1-0.2-0.1-0.3v-17c0-0.1,0-0.2,0.1-0.3
	c0-0.1,0.1-0.2,0.2-0.2c0.1-0.1,0.1-0.1,0.2-0.2c0.1,0,0.2-0.1,0.3-0.1h7.9c4.8,0,8.3,3.9,8.3,9.2
	C389.9,216.9,386.3,220.8,381.5,220.8z"/>
<path class="st0" d="M311.1,211.7c-1.8-0.8-3.8-1.1-5.7-1c-2,0.1-3.9,0.7-5.6,1.7c-1.7,1-3.2,2.3-4.3,4c-1.1,1.6-1.9,3.5-2.3,5.5
	c-0.4,2-0.3,4,0.2,6c0.5,1.9,1.4,3.7,2.7,5.3c1.3,1.5,2.9,2.7,4.7,3.6c1.8,0.8,3.7,1.2,5.7,1.2c1.7,0,3.4-0.4,5-1.1
	c1.6-0.7,3-1.7,4.2-3c1.2-1.3,2.1-2.8,2.8-4.4c0.6-1.6,0.9-3.4,0.9-5.1c0-2.7-0.8-5.3-2.3-7.6C315.6,214.4,313.6,212.7,311.1,211.7z
	"/>
<path class="st0" d="M460,211.1c-0.1-0.1-0.2-0.1-0.3-0.1H454c-0.1,0-0.3,0.1-0.4,0.1c-0.1,0.1-0.2,0.2-0.3,0.4l-6.8,21.4
	c-0.1,0.1-0.1,0.3-0.3,0.4c-0.1,0.1-0.3,0.1-0.4,0.1c-0.1,0-0.3,0-0.4-0.1c-0.1-0.1-0.2-0.2-0.3-0.4l-7.8-21.5
	c-0.1-0.1-0.1-0.3-0.3-0.3c-0.1-0.1-0.3-0.1-0.4-0.1H431c-0.1,0-0.2,0-0.3,0.1c-0.1,0.1-0.2,0.1-0.3,0.2c-0.1,0.1-0.1,0.2-0.1,0.3
	c0,0.1,0,0.2,0,0.3l11.5,30.5c0.1,0.2,0.1,0.3,0,0.5l-0.4,1.2c-0.4,1.5-1.3,2.7-2.5,3.6c-1.2,0.9-2.7,1.3-4.2,1.2
	c-0.8,0-1.7-0.1-2.5-0.2c-0.1,0-0.2,0-0.3,0c-0.1,0-0.2,0.1-0.3,0.2c-0.1,0.1-0.1,0.2-0.2,0.2c0,0.1-0.1,0.2-0.1,0.3v5.2
	c0,0.2,0.1,0.3,0.2,0.4c0.1,0.1,0.2,0.2,0.4,0.3c1,0.3,2,0.4,3,0.4c5.4,0,10.3-2,13.1-9.9l12.3-33.8c0-0.1,0-0.2,0-0.3
	c0-0.1-0.1-0.2-0.1-0.3C460.2,211.3,460.1,211.2,460,211.1z"/>
</svg>
